@startuml

skinparam state {
  BackgroundColor #faf4b4
  BorderColor #c90000
}

skinparam note {
  BackgroundColor #f5f5f5
}

skinparam linetype polyline

title Detalle Caso de Uso Abrir Newton Cotes Cerrado n=1


DIFERENCIACION_NUMERICA_E_INTEGRACION-[#green]-> abrir_newton_cotes_c1
note on link
  **Cliente solicita:**
  - Abrir Newton Cotes Cerrado n=1
end note

state abrir_newton_cotes_c1{
  state 1 as " "
  state 2 as " "
  state 3 as " "
  
  [*] -[#green]-> 1
  1 -[#green]-> 2
  note on link
      **Sistema requiere:**
      - Método newton cotes cerrado n=1 conocido
  end note
  2 -[#green]-> 3
  note on link
    **Cliente Selecciona:**
    - Método newton cotes cerrado n=1 conocido
  end note
 
  3 -[#green]-> [*]
}

abrir_newton_cotes_c1-[#green]-> :abrirNewtonCotesC1

:abrirNewtonCotesC1-[#green]-> NEWTON_COTES_C1

@enduml