@startuml

skinparam state {
  BackgroundColor #faf4b4
  BorderColor #c90000
}

skinparam note {
  BackgroundColor #f5f5f5
}

skinparam linetype polyline

title Detalle Caso de Uso Abrir Newton Cotes Cerrado n=4


DIFERENCIACION_NUMERICA_E_INTEGRACION-[#green]-> abrir_newton_cotes_c4
note on link
  **Usuario solicita:**
  - Abrir Newton Cotes Cerrado n=4
end note

state abrir_newton_cotes_c4{
  state 1 as " "
  state 2 as " "
  state 3 as " "
  
  [*] -[#green]-> 1
  1 -[#green]-> 2
  note on link
      **Sistema requiere:**
      - Método newton cotes cerrado n=4 conocido
  end note
  2 -[#green]-> 3
  note on link
    **Usuario Selecciona:**
    - Método newton cotes cerrado n=4 conocido
  end note
 
  3 -[#green]-> [*]
}

abrir_newton_cotes_c4-[#green]-> :abrirNewtonCotesC4

:abrirNewtonCotesC4-[#green]-> NEWTON_COTES_C4

@enduml