@startuml

skinparam state {
  BackgroundColor #faf4b4
  BorderColor #c90000
}

skinparam note {
  BackgroundColor #f5f5f5
}

skinparam linetype polyline

title Detalle Caso de Uso Abrir Extremo de 5 Puntos


DIFERENCIACION_NUMERICA_E_INTEGRACION-[#green]-> abrir_extremo_5_puntos
note on link
  **Cliente solicita:**
  - Abrir Extremo de 5 Puntos
end note

state abrir_extremo_5_puntos{
  state 1 as " "
  state 2 as " "
  state 3 as " "
  
  [*] -[#green]-> 1
  1 -[#green]-> 2
  note on link
      **Sistema requiere:**
      - Método extremo de 5 puntos conocido
  end note
  2 -[#green]-> 3
  note on link
    **Cliente Selecciona:**
    - Método extremo de 5 puntos conocido
  end note
 
  3 -[#green]-> [*]
}

abrir_extremo_5_puntos-[#green]-> :abrirExtremo5Puntos

:abrirExtremo5Puntos-[#green]-> EXTREMO_5_PUNTOS

@enduml