@startuml

skinparam state {
  BackgroundColor #faf4b4
  BorderColor #c90000
}

skinparam note {
  BackgroundColor #f5f5f5
}

skinparam linetype polyline

title Detalle Caso de Uso Abrir Integral Triple Gaussiana


DIFERENCIACION_NUMERICA_E_INTEGRACION-[#green]-> abrir_integral_triple_gaussiana
note on link
  **Cliente solicita:**
  - Abrir Integral Triple Gaussiana
end note

state abrir_integral_triple_gaussiana{
  state 1 as " "
  state 2 as " "
  state 3 as " "
  
  [*] -[#green]-> 1
  1 -[#green]-> 2
  note on link
      **Sistema requiere:**
      - Método integral triple gaussiana conocido
  end note
  2 -[#green]-> 3
  note on link
    **Cliente Selecciona:**
    - Método integral triple gaussiana conocido
  end note
 
  3 -[#green]-> [*]
}

abrir_integral_triple_gaussiana-[#green]-> :abrirIntegralTripleGaussiana

:abrirIntegralTripleGaussiana-[#green]-> INTEGRAL_TRIPLE_GAUSSIANA

@enduml