@startuml

skinparam state {
  BackgroundColor #faf4b4
  BorderColor #c90000
}

skinparam note {
  BackgroundColor #f5f5f5
}

skinparam linetype polyline

title Detalle Caso de Uso Abrir Método Müller


ECUACIONES_UNA_VARIABLE -[#green]-> abrir_müller
note on link
  **Cliente solicita:**
  - Abrir Método Müller
end note

state abrir_müller{
  state 1 as " "
  state 2 as " "
  state 3 as " "
  
  [*] -[#green]-> 1
  1 -[#green]-> 2
  note on link
      **Sistema requiere:**
      - Método müller conocido
  end note
  2 -[#green]-> 3
  note on link
    **Cliente Selecciona:**
    - Método müller conocido
  end note
 
  3 -[#green]-> [*]
}

abrir_müller-[#green]-> :abrirMüller

:abrirMüller -[#green]-> MÜLLER

@enduml