@startuml

skinparam state {
  BackgroundColor #faf4b4
  BorderColor #c90000
}

skinparam note {
  BackgroundColor #f5f5f5
}

skinparam linetype polyline

title Detalle Caso de Uso Abrir Método Punto Fijo


ECUACIONES_UNA_VARIABLE -[#green]-> abrir_punto_fijo
note on link
  **Cliente solicita:**
  - Abrir Método Punto Fijo
end note

state abrir_punto_fijo{
  state 1 as " "
  state 2 as " "
  state 3 as " "
  
  [*] -[#green]-> 1
  1 -[#green]-> 2
  note on link
      **Sistema requiere:**
      - Método punto fijo conocido
  end note
  2 -[#green]-> 3
  note on link
    **Cliente Selecciona:**
    - Método punto fijo conocido
  end note
 
  3 -[#green]-> [*]
}

abrir_punto_fijo-[#green]-> :abrirPuntoFijo

:abrirPuntoFijo -[#green]-> PUNTO_FIJO

@enduml