@startuml

top to bottom direction

skinparam state {
  BackgroundColor #faf4b4
  BorderColor #c90000
}

skinparam note {
  BackgroundColor #f5f5f5
}

skinparam linetype polyline

title Detalle Caso de Uso Crear Operación Falsa Posición

state FALSA_POSICION

FALSA_POSICION -[#green]-> crear_falsa_posicion
note on link
  **Cliente solicita:**
  - Crear operación falsa posición
end note

state crear_falsa_posicion {
  state 1 as " "
  state 2 as " "
  state 3 as " "
  
  [*] -[#green]-> 1
  1 -[#green]-> 2
  note on link
      **Sistema requiere Parámetros:**
      - funcion
      - p0
      - p1
      - TOL
      - N0
  end note
  2 -[#green]-> 3
  note on link
    **Cliente Proporciona Parámetros:**
      - funcion
      - p0
      - p1
      - TOL
      - N0
  end note
  3 -[#red]-> 1
  note on link
    [Parámetros Inválidos]
  end note
  3 -[#green]-> [*]
}

crear_falsa_posicion -[#green]-> :calcularResultadoFalsaPosicion

:calcularResultadoFalsaPosicion-[#green]-> FALSA_POSICION

@enduml