@startuml

skinparam state {
  BackgroundColor #faf4b4
  BorderColor #c90000
}

skinparam note {
  BackgroundColor #f5f5f5
}

skinparam linetype polyline

title Detalle Caso de Uso Abrir Método Bisección


ECUACIONES_UNA_VARIABLE -[#green]-> abrir_biseccion
note on link
  **Cliente solicita:**
  - Abrir Método Bisección
end note

state abrir_biseccion{
  state 1 as " "
  state 2 as " "
  state 3 as " "
  
  [*] -[#green]-> 1
  1 -[#green]-> 2
  note on link
      **Sistema requiere:**
      - Método bisección conocido
  end note
  2 -[#green]-> 3
  note on link
    **Cliente Selecciona:**
    - Método bisección conocido
  end note
 
  3 -[#green]-> [*]
}

abrir_biseccion-[#green]-> :abrirBiseccion

:abrirBiseccion -[#green]-> BISECCION

@enduml