@startuml

skinparam state {
  BackgroundColor #faf4b4
  BorderColor #c90000
}

skinparam note {
  BackgroundColor #f5f5f5
}

skinparam linetype polyline

title Detalle Caso de Uso Abrir Método Steffensen


ECUACIONES_UNA_VARIABLE -[#green]-> abrir_steffensen
note on link
  **Cliente solicita:**
  - Abrir Método Steffensen
end note

state abrir_steffensen{
  state 1 as " "
  state 2 as " "
  state 3 as " "
  
  [*] -[#green]-> 1
  1 -[#green]-> 2
  note on link
      **Sistema requiere:**
      - Método steffensen conocido
  end note
  2 -[#green]-> 3
  note on link
    **Cliente Selecciona:**
    - Método steffensen conocido
  end note
 
  3 -[#green]-> [*]
}

abrir_steffensen-[#green]-> :abrirSteffensen

:abrirSteffensen -[#green]-> STEFFENSEN

@enduml